<?xml version="1.0" encoding="UTF-8" standalone="no"?>
<!-- Created with Inkscape (http://www.inkscape.org/) -->

<svg
   xmlns:dc="http://purl.org/dc/elements/1.1/"
   xmlns:cc="http://creativecommons.org/ns#"
   xmlns:rdf="http://www.w3.org/1999/02/22-rdf-syntax-ns#"
   xmlns:svg="http://www.w3.org/2000/svg"
   xmlns="http://www.w3.org/2000/svg"
   xmlns:sodipodi="http://sodipodi.sourceforge.net/DTD/sodipodi-0.dtd"
   xmlns:inkscape="http://www.inkscape.org/namespaces/inkscape"
   width="128"
   height="128"
   id="svg2"
   inkscape:label="Pozadí"
   version="1.1"
   inkscape:version="0.48.3.1 r9886"
   sodipodi:docname="bug.svg">
  <defs
     id="defs3" />
  <sodipodi:namedview
     id="base"
     pagecolor="#ffffff"
     bordercolor="#666666"
     borderopacity="1.0"
     inkscape:pageopacity="0.0"
     inkscape:pageshadow="2"
     inkscape:zoom="2.5190679"
     inkscape:cx="74.534725"
     inkscape:cy="43.099325"
     inkscape:document-units="px"
     inkscape:current-layer="layer1"
     showgrid="false"
     inkscape:window-width="1091"
     inkscape:window-height="654"
     inkscape:window-x="184"
     inkscape:window-y="93"
     inkscape:window-maximized="0" />
  <metadata
     id="metadata6">
    <rdf:RDF>
      <cc:Work
         rdf:about="">
        <dc:format>image/svg+xml</dc:format>
        <dc:type
           rdf:resource="http://purl.org/dc/dcmitype/StillImage" />
        <dc:title />
      </cc:Work>
    </rdf:RDF>
  </metadata>
  <g
     inkscape:label="Vrstva 1"
     inkscape:groupmode="layer"
     id="layer1"
     transform="translate(0,-924.36215)">
    <path
       style="font-size:medium;font-style:normal;font-variant:normal;font-weight:normal;font-stretch:normal;text-indent:0;text-align:start;text-decoration:none;line-height:normal;letter-spacing:normal;word-spacing:normal;text-transform:none;direction:ltr;block-progression:tb;writing-mode:lr-tb;text-anchor:start;baseline-shift:baseline;color:#000000;fill:#ffffff;fill-opacity:1;stroke:none;stroke-width:2;marker:none;visibility:visible;display:inline;overflow:visible;enable-background:accumulate;font-family:Sans;-inkscape-font-specification:Sans"
       d="m 66.209612,937.10692 c -10.135458,0 -20.721176,4.85384 -20.535835,11.56257 0.07967,2.88389 -0.462041,7.594 4.269987,11.42248 -2.815198,1.88899 -3.012098,1.60787 -4.732244,3.69815 -9.941946,-7.90783 -17.288832,-9.30742 -28.463159,-13.14715 L 4.6930157,961.91159 c 17.4931253,6.26059 19.8413793,6.34993 31.8126393,14.83809 -2.509478,5.2028 -2.049271,3.64582 -2.530437,10.0972 -9.145324,-3.69179 -25.2193534,-3.98066 -25.2193534,-3.98066 l -9.5417855,14.70035 c 16.6074499,1.37843 22.0671729,1.54748 33.2149089,4.16203 0.608341,5.8859 1.065561,6.7005 3.381965,11.4995 -8.758055,5.9112 -13.865425,8.4087 -23.067857,16.6758 l 3.413182,18.7047 c 11.656483,-12.3426 13.929639,-14.183 27.736289,-21.9537 5.550077,7.1384 12.318107,9.7391 20.693614,9.7391 8.219565,0 14.196093,-2.944 19.717107,-9.8487 1.67532,0.5688 8.02983,4.1582 9.208513,5.0029 8.328779,5.9692 16.897279,13.3804 16.897279,13.3804 l 3.41319,-15.2313 c 0,0 -11.28851,-12.1666 -20.204792,-16.217 2.179646,-7.4585 1.84545,-5.9617 3.235264,-13.1401 8.734738,-3.25622 29.109138,-4.27035 29.109138,-4.27035 l -8.74784,-13.37505 c 0,0 -12.43213,1.01047 -22.356285,3.84248 -0.773967,-6.95157 -1.000663,-6.67577 -3.308773,-12.30715 12.930518,-7.11487 14.313828,-7.78068 30.819588,-12.62435 l -12.75005,-11.96331 c -14.195707,5.54183 -17.483187,5.38174 -26.64431,13.33993 -2.898954,-3.11965 -0.07151,-0.10498 -1.824453,-2.36951 3.867152,-4.90899 5.475677,-4.58474 5.198717,-12.24113 -0.235408,-6.50773 -10.003404,-11.26484 -20.138862,-11.26484 z"
       id="path3785-5-9"
       inkscape:connector-curvature="0"
       sodipodi:nodetypes="sscccccccccccccscsccccccccccccss" />
    <path
       style="font-size:medium;font-style:normal;font-variant:normal;font-weight:normal;font-stretch:normal;text-indent:0;text-align:start;text-decoration:none;line-height:normal;letter-spacing:normal;word-spacing:normal;text-transform:none;direction:ltr;block-progression:tb;writing-mode:lr-tb;text-anchor:start;baseline-shift:baseline;color:#000000;fill:#000000;fill-opacity:1;stroke:none;stroke-width:2;stroke-miterlimit:4;stroke-opacity:1;stroke-dasharray:none;marker:none;visibility:visible;display:inline;overflow:visible;enable-background:accumulate;font-family:Sans;-inkscape-font-specification:Sans"
       d="m 65.967105,940.92246 c -8.991584,0 -16.28125,4.84395 -16.28125,10.8125 0,3.88615 3.111808,7.28313 7.75,9.1875 -4.434417,1.67993 -8.394927,4.78379 -11.59375,8.9375 -0.926171,-1.08698 -1.882977,-2.07463 -2.78125,-2.90625 -5.84058,-5.40718 -25.375,-11.875 -25.375,-11.875 l -6.46875,5.34375 c 0,0 17.443251,5.46952 24.28125,10.125 1.988288,1.35368 4.218266,3.46104 6.40625,5.71875 -2.226262,4.62701 -3.666888,9.95009 -4.09375,15.6875 -8.113195,-3.28322 -25.71875,-4.6875 -25.71875,-4.6875 l -5.0312497,6.71875 c 0,0 18.2510577,1.16667 25.9999997,4.0625 1.480703,0.55336 3.153093,1.39765 4.875,2.37504 0.539684,5.2345 1.913772,10.1071 3.96875,14.375 -0.887575,0.2085 -1.759218,0.434 -2.53125,0.6875 -7.561979,2.483 -22.6875,16.4375 -22.6875,16.4375 l 1.53125,8.25 c 0,0 13.236196,-12.5926 20.625,-16.3125 1.899305,-0.9562 4.413544,-1.8421 7.0625,-2.5938 4.923702,6.3484 11.632242,10.25 19.0625,10.25 7.291916,0 13.91458,-3.7656 18.8125,-9.9062 1.486246,0.5059 2.881602,1.0462 4.03125,1.625 7.388804,3.7199 20.625005,16.3125 20.625005,16.3125 l 1.53125,-8.25 c 0,0 -14.328589,-13.2032 -22.062505,-16.1875 2.454386,-4.9814 3.985362,-10.8203 4.3125,-17.09379 0.472382,-0.21137 0.931978,-0.42819 1.375,-0.59375 7.748945,-2.89582 26.000005,-4.0625 26.000005,-4.0625 l -5.03125,-6.6875 c 0,0 -13.75837,1.07516 -22.562505,3.59375 -0.686618,-6.18224 -2.56054,-11.85037 -5.3125,-16.59375 1.542801,-1.47597 3.071396,-2.79864 4.46875,-3.75 6.837999,-4.65548 24.281255,-10.125 24.281255,-10.125 l -6.46875,-5.34375 c 0,0 -19.534425,6.46782 -25.375005,11.875 -0.433066,0.40093 -0.900566,0.84383 -1.34375,1.3125 -2.571782,-2.7744 -5.522081,-4.94765 -8.75,-6.34375 5.191563,-1.80617 8.75,-5.40193 8.75,-9.5625 0,-5.96855 -7.289666,-10.8125 -16.28125,-10.8125 z"
       id="path3785-5"
       inkscape:connector-curvature="0" />
    <path
       sodipodi:type="arc"
       style="fill:#cccccc;fill-opacity:1;fill-rule:nonzero;stroke:#cccccc;stroke-width:4;stroke-linejoin:miter;stroke-miterlimit:4;stroke-opacity:1;stroke-dasharray:none"
       id="path3065"
       sodipodi:cx="81.824562"
       sodipodi:cy="73.543861"
       sodipodi:rx="0.98245621"
       sodipodi:ry="11.508772"
       d="m 82.807018,73.543861 c 0,6.35612 -0.43986,11.508772 -0.982456,11.508772 -0.542596,0 -0.982456,-5.152652 -0.982456,-11.508772 0,-6.356119 0.43986,-11.508772 0.982456,-11.508772 0.542596,0 0.982456,5.152653 0.982456,11.508772 z"
       transform="translate(0.84210526,923.80075)" />
  </g>
</svg>
