/* XPM */
static char *mmarchitect[] = {
/* columns rows colors chars-per-pixel */
"32 32 207 2",
"   c #BD6E11",
".  c #BE6E12",
"X  c #B56819",
"o  c #B96A1A",
"O  c #BB6F1A",
"+  c #BE6F1B",
"@  c #BF7114",
"#  c #B76D24",
"$  c #B76E26",
"%  c #B06629",
"&  c #BA7129",
"*  c #BC7228",
"=  c #BB732E",
"-  c #BC732D",
";  c #B77234",
":  c #BF7632",
">  c #BB7536",
",  c #BF7838",
"<  c #C0710D",
"1  c #C47510",
"2  c #C57510",
"3  c #C17315",
"4  c #C17117",
"5  c #C27415",
"6  c #C47514",
"7  c #C57717",
"8  c #C67716",
"9  c #C77915",
"0  c #C87914",
"q  c #C87A15",
"w  c #C4751B",
"e  c #C1721F",
"r  c #C1751F",
"t  c #C87919",
"y  c #CB7C18",
"u  c #CC7D19",
"i  c #CD7E1A",
"p  c #C87A1C",
"a  c #C97B1C",
"s  c #C8781F",
"d  c #CD7D1E",
"f  c #C47522",
"g  c #C77825",
"h  c #C77B25",
"j  c #C77826",
"k  c #CD7F22",
"l  c #CB7A24",
"z  c #C87B27",
"x  c #CE7E27",
"c  c #C0772C",
"v  c #C4792A",
"b  c #C97B29",
"n  c #CA7A29",
"m  c #CC7D2C",
"M  c #CC7E2D",
"N  c #C27B30",
"B  c #C57931",
"V  c #C57C30",
"C  c #C17A38",
"Z  c #C37B3A",
"A  c #C47B39",
"S  c #C67F3D",
"D  c #C47E3F",
"F  c #B06C41",
"G  c #CE801D",
"H  c #D0811D",
"J  c #D1821F",
"K  c #D2831F",
"L  c #CF8123",
"P  c #CD812B",
"I  c #D28320",
"U  c #D08123",
"Y  c #D38421",
"T  c #D58624",
"R  c #D58625",
"E  c #D68725",
"W  c #D48527",
"Q  c #D68825",
"!  c #D08228",
"~  c #D0812B",
"^  c #D0832A",
"/  c #D6872A",
"(  c #D3862D",
")  c #D6882C",
"_  c #D7892C",
"`  c #D98A29",
"'  c #DA8B29",
"]  c #DA8B2A",
"[  c #DB8C29",
"{  c #DA8C2A",
"}  c #DB8C2A",
"|  c #D98B2D",
" . c #DC8E2D",
".. c #DD8E2D",
"X. c #DD8F2D",
"o. c #DD8F2E",
"O. c #DE912F",
"+. c #CF8030",
"@. c #CE8130",
"#. c #CB8034",
"$. c #CD8134",
"%. c #CF8639",
"&. c #D18333",
"*. c #D38731",
"=. c #D58732",
"-. c #D38636",
";. c #D58933",
":. c #D78C37",
">. c #DB8E31",
",. c #D88A36",
"<. c #D88D37",
"1. c #D3873C",
"2. c #D58839",
"3. c #D58A3A",
"4. c #D1893E",
"5. c #D48B3F",
"6. c #D98E3B",
"7. c #DB8E3A",
"8. c #DE9030",
"9. c #DE9130",
"0. c #DF9231",
"q. c #DB913D",
"w. c #DB913F",
"e. c #DD913E",
"r. c #DE933E",
"t. c #E09231",
"y. c #E09333",
"u. c #E29535",
"i. c #E39635",
"p. c #E09339",
"a. c #E2953A",
"s. c #E4973D",
"d. c #E5993A",
"f. c #E6993A",
"g. c #E69A3A",
"h. c #E89C3D",
"j. c #E99D3D",
"k. c #E99D3E",
"l. c #EA9E3E",
"z. c #EA9E3F",
"x. c #C58245",
"c. c #CA8340",
"v. c #CD8740",
"b. c #CA8244",
"n. c #CF8947",
"m. c #C7844A",
"M. c #CC894D",
"N. c #D58F4B",
"B. c #DD9343",
"V. c #D5914E",
"C. c #DE9548",
"Z. c #DF974D",
"A. c #DC964F",
"S. c #DC9750",
"D. c #E29740",
"F. c #E09442",
"G. c #E29745",
"H. c #E69A41",
"J. c #E59B42",
"K. c #EA9E40",
"L. c #EB9F41",
"P. c #E89D43",
"I. c #E89D44",
"U. c #E99E45",
"Y. c #E59A49",
"T. c #E0984D",
"R. c #E39B50",
"E. c #E09A52",
"W. c #E09C56",
"Q. c #E59F54",
"!. c #EBA041",
"~. c #ECA041",
"^. c #ECA142",
"/. c #ECA144",
"(. c #EDA245",
"). c #EEA245",
"_. c #EEA345",
"`. c #EFA446",
"'. c #EBA149",
"]. c #EDA348",
"[. c #EDA349",
"{. c #EEA44D",
"}. c #F0A54A",
"|. c #F0A64A",
" X c #F1A64A",
".X c #F1A74A",
"XX c #F1A64B",
"oX c #F1A74B",
"OX c #F2A94E",
"+X c #F3A94E",
"@X c #F2A84F",
"#X c #F2A94F",
"$X c #F3AA4E",
"%X c #F3AA4F",
"&X c #E7A050",
"*X c #F0A750",
"=X c #F4AB50",
"-X c #F5AC52",
";X c #F5AD52",
":X c #F6AD53",
">X c #F2AA54",
",X c #F5AC54",
"<X c #F7AE55",
"1X c #F7AF56",
"2X c #F1AB58",
"3X c #F8B056",
"4X c None",
/* pixels */
"4X4X4X4X4X4X4X4X4X4X4X4X4X4X4X4X4X4X4X4X4X4X4X4X4X4X4X4X4X4X4X4X",
"4X4X4X4X4X4X4X4X4X4X4X4X4X4X4X4X4X4X4X4X4X4X4X4X4X4X4X4X4X4X4X4X",
"4X4X4X4X4X4X4X4X4X4X4X4X4X4X4X4X4X4X4X4X4X4X4X4X4X4X4X4X4X4X4X4X",
"4X4X4X4X4X4X4X4X4X4X4X4X4X4XF 4X4X4X4X4X4X4X4X4X4X4X4X4X4X4X4X4X",
"4X4X4X4X4X4X4X4X4X4X4X4X4X4XB % 4X4X4X4X4X4X4X4X4X4X4X4X4X4X4X4X",
"4X4X4X4X4X4X4X4X4X4X4X4X4Xv.p.o $ 4X4X4X4X4X4X4X4X4X4X4X4X4X4X4X",
"4X4X4X4X4X4X4X4X4X4X4X4Xv.a.h.j < & 4X4X4X4X4X4X4X4X4X4X4X4X4X4X",
"4X4X4X4X4X4X4X4X4X4X4X4X<.f.j.=.. w - 4X4X4X4X4X4X4X4X4X4X4X4X4X",
"4X4X4X4X4X4X4X4X4X4X4X%.u.d.L.s.+ q a : 4X4X4X4X4X4X4X4X4X4X4X4X",
"4X4X4X4X4X4X4X4X4X4XS >.i.d.j.L.b 6 u k Z 4X4X4X4X4X4X4X4X4X4X4X",
"4X4X4X4X4X4X4X4X4X4X*.t.u.d.j.^.,.4 u Y L D 4X4X4X4X4X4X4X4X4X4X",
"4X4X4X4X4X4X4X4X4X#. .t.u.d.j.^.H.f u Y R ( x.4X4X4X4X4X4X4X4X4X",
"4X4X4X4X4X4X4X4XZ /  .0.u.d.j.!./.M t Y Q } ;.m.4X4X4X4X4X4X4X4X",
"4X4X4X4X4X4X4X4XP ' O.0.u.d.j.L./.7.w K R } O.<.4X4X4X4X4X4X4X4X",
"4X4X4X4X4X4X4XV R '  .t.u.d.j.!./.U.f K R ' O.u.7.4X4X4X4X4X4X4X",
"4X4X4X4X4X4X, L Q '  .t.u.d.j.!./.XXP d R ' O.u.d.B.4X4X4X4X4X4X",
"4X4X4X4X4X4Xh K Q ' O.0.u.d.j.!.}.oXe.a E ' t.u.d.j.B.4X4X4X4X4X",
"4X4X4X4X4Xc G E R '  .0.u.d.j.L./.oXU.j R ' 0.u.d.L.L.C.4X4X4X4X",
"4X4X4X4X> a H K Q '  .0.u.d.j.L./.XX=X&.U ' O.u.d.j./.oXT.4X4X4X",
"4X4X4X4Xr y G K R '  .0.u.d.L.!./.XX=XF.l ' 0.i.f.L./.+X=XE.4X4X",
"4X4X4X& q u K E Q '  .t.u.d.j.!.`.XX+X{.b ' >.i.a.L./.XX=X,XE.4X",
"4X4X; 5 q u G K R } O.t.u.d.j.!./.oX+X:X-.R 0.i.f.L.`.XX=X<XQ.4X",
"4X4XO 2 0 u G E E '  .t.u.d.j.L.`.XX=X,XG.x >.i.f.z./.XX>XR.4X4X",
"4X# < 2 0 y H K E }  .0.u.d.j.^.L.XXXX,X*XM  .i.f.L./.[.S.4X4X4X",
"4XX @ 5 6 u K U R }  .t.i.d.j.^./.oX#X=X<X2.| u.f.z.H.N.4X4X4X4X",
"4X4X4X4X= N v z ^ | | 0.i.d.j.^./.oX#X:X3XY.P u.d.s.N.4X4X4X4X4X",
"4X4X4X4X4X4X4X4X4X4XA v.4.2.r.J.U./.+X:X3X>X+.t.e.M.4X4X4X4X4X4X",
"4X4X4X4X4X4X4X4X4X4X4X4X4X4X4X4Xb.V.S.T.&X2X1.$.4X4X4X4X4X4X4X4X",
"4X4X4X4X4X4X4X4X4X4X4X4X4X4X4X4X4X4X4X4X4X4X4X4X4X4X4X4X4X4X4X4X",
"4X4X4X4X4X4X4X4X4X4X4X4X4X4X4X4X4X4X4X4X4X4X4X4X4X4X4X4X4X4X4X4X",
"4X4X4X4X4X4X4X4X4X4X4X4X4X4X4X4X4X4X4X4X4X4X4X4X4X4X4X4X4X4X4X4X",
"4X4X4X4X4X4X4X4X4X4X4X4X4X4X4X4X4X4X4X4X4X4X4X4X4X4X4X4X4X4X4X4X"
};
