<?xml version="1.0" encoding="UTF-8" standalone="no"?>
<!-- Created with Inkscape (http://www.inkscape.org/) -->

<svg
   xmlns:dc="http://purl.org/dc/elements/1.1/"
   xmlns:cc="http://creativecommons.org/ns#"
   xmlns:rdf="http://www.w3.org/1999/02/22-rdf-syntax-ns#"
   xmlns:svg="http://www.w3.org/2000/svg"
   xmlns="http://www.w3.org/2000/svg"
   xmlns:sodipodi="http://sodipodi.sourceforge.net/DTD/sodipodi-0.dtd"
   xmlns:inkscape="http://www.inkscape.org/namespaces/inkscape"
   width="128"
   height="128"
   id="svg2"
   inkscape:label="Pozadí"
   version="1.1"
   inkscape:version="0.48.3.1 r9886"
   sodipodi:docname="tip.svg">
  <defs
     id="defs3">
    <inkscape:path-effect
       effect="spiro"
       id="path-effect4580"
       is_visible="true" />
  </defs>
  <sodipodi:namedview
     id="base"
     pagecolor="#ffffff"
     bordercolor="#666666"
     borderopacity="1.0"
     inkscape:pageopacity="0.0"
     inkscape:pageshadow="2"
     inkscape:zoom="3.734375"
     inkscape:cx="64"
     inkscape:cy="64"
     inkscape:document-units="px"
     inkscape:current-layer="layer1"
     showgrid="false"
     inkscape:window-width="1056"
     inkscape:window-height="732"
     inkscape:window-x="389"
     inkscape:window-y="98"
     inkscape:window-maximized="0"
     showguides="true">
    <inkscape:grid
       type="xygrid"
       id="grid5219" />
  </sodipodi:namedview>
  <metadata
     id="metadata6">
    <rdf:RDF>
      <cc:Work
         rdf:about="">
        <dc:format>image/svg+xml</dc:format>
        <dc:type
           rdf:resource="http://purl.org/dc/dcmitype/StillImage" />
        <dc:title />
      </cc:Work>
    </rdf:RDF>
  </metadata>
  <g
     inkscape:label="Vrstva 1"
     inkscape:groupmode="layer"
     id="layer1"
     transform="translate(0,-924.36215)">
    <path
       style="font-size:medium;font-style:normal;font-variant:normal;font-weight:normal;font-stretch:normal;text-indent:0;text-align:start;text-decoration:none;line-height:normal;letter-spacing:normal;word-spacing:normal;text-transform:none;direction:ltr;block-progression:tb;writing-mode:lr-tb;text-anchor:start;baseline-shift:baseline;color:#000000;fill:#000000;fill-opacity:1;stroke:#ffffff;stroke-width:4.58585977999999983;stroke-miterlimit:4;stroke-opacity:1;stroke-dasharray:none;marker:none;visibility:visible;display:inline;overflow:visible;enable-background:accumulate;font-family:Sans;-inkscape-font-specification:Sans"
       d="M 50.28125 12.375 C 53.341525 27.94472 54.288464 35.023748 55.5 43.28125 L 37.34375 17.75 L 17.1875 37.90625 C 30.378265 46.76343 36.042587 51.071795 42.75 56.0625 C 34.485602 54.849884 27.433053 53.876597 11.84375 50.8125 L 11.84375 79.3125 L 42.71875 74.09375 C 36.025627 79.074279 30.365461 83.401407 17.1875 92.25 L 37.34375 112.40625 L 55.5 86.84375 C 54.285177 95.114875 53.346954 102.1526 50.28125 117.75 L 78.78125 117.75 L 73.53125 86.84375 C 78.522666 93.553938 82.854914 99.205594 91.71875 112.40625 L 111.875 92.25 L 86.28125 74.0625 L 117.21875 79.3125 L 117.21875 50.8125 C 101.63348 53.875822 94.575254 54.817824 86.3125 56.03125 L 111.875 37.90625 L 91.71875 17.75 C 82.851749 30.955398 78.525075 36.599001 73.53125 43.3125 L 78.78125 12.375 L 50.28125 12.375 z "
       transform="translate(0,924.36215)"
       id="path6562" />
  </g>
</svg>
